{"title":"Bleach (Ep 196) [Eng Subs] [Xvid] {1337x}-Noir","uid":4535306,"size":207609315,"categoryP":"video","categoryS":"tv_shows","magnet":"?xt=urn:btih:29802d05d98e2c14709102e341d8a603f911aad6&amp;dn=Bleach+%28Ep+196%29+%5BEng+Subs%5D+%5BXvid%5D+%7B1337x%7D-Noir&amp;tr=udp%3A%2F%2Ftracker.openbittorrent.com%3A80&amp;tr=udp%3A%2F%2Fopen.demonii.com%3A1337&amp;tr=udp%3A%2F%2Ftracker.coppersurfer.tk%3A6969&amp;tr=udp%3A%2F%2Fexodus.desync.com%3A6969","seeders":0,"leechers":0,"uploader":"INoirI","files":3,"time":1227716973,"description":" &lt;a href=&quot;http://i220.photobucket.com/albums/dd94/ItheplagueI/3-32.png&quot; rel=&quot;nofollow&quot; target=&quot;_NEW&quot;&gt;http://i220.photobucket.com/albums/dd94/ItheplagueI/3-32.png&lt;/a&gt;\n &lt;a href=&quot;\nhttp://i220.photobucket.com/albums/dd94/ItheplagueI/2-34.png&quot; rel=&quot;nofollow&quot; target=&quot;_NEW&quot;&gt;\nhttp://i220.photobucket.com/albums/dd94/ItheplagueI/2-34.png&lt;/a&gt;\n &lt;a href=&quot;\nhttp://i220.photobucket.com/albums/dd94/ItheplagueI/1-37.png&quot; rel=&quot;nofollow&quot; target=&quot;_NEW&quot;&gt;\nhttp://i220.photobucket.com/albums/dd94/ItheplagueI/1-37.png&lt;/a&gt;\n\n\n\n                      **************\n                      * Bleach 196 *\n                      **************\n\n________________________\n   General Information  |  \n________________________|\n_______________________________________________________________\nType                    : Anime                                \nFormat                  : AVI                                  \nFormat/Info             : Audio Video Interleave               \nFile size               : 197Mb                                \nDuration                : 23mn 14s                              \nLanguage                : Japanese                              \nSubtitles               : English (Hardcoded)-  [By dattebayo]                             \nGenre                   : Action | Adventure | Fantasy | Thriller                  \nIMDB Link               : http://www.imdb.com/title/tt0434665/ \nRating                  : 8.9/10                               \n_______________________________________________________________\n________________________________________________________________\nVideo\nFormat                           : MPEG-4 Visual\nCodec ID/Hint                    : XviD\nDuration                         : 23mn 14s\nBit rate                         : 1 085 Kbps\nWidth                            : 624 pixels\nHeight                           : 336 pixels\nDisplay aspect ratio             : 16/9\nFrame rate                       : 23.976 fps\nBits/(Pixel*Frame)               : 0.216\nStream size                      : 180 MiB (91%)            \n_______________________________________________________________\nAudio\nFormat                           : MPEG Audio\nCodec ID/Hint                    : MP3\nBit rate mode                    : Variable\nBit rate                         : 96.0 Kbps\nChannel(s)                       : 2 channels\nSampling rate                    : 48.0 KHz\nStream size                      : 16.0 MiB (8%)\nWriting library                  : LAME3.82                      \n_______________________________________________________________\n________________\n   Description  \n________________\n_______________________________________________________________\nHigh school student Kurosaki Ichigo is unlike any ordinary kid.\nWhy? Because he can see ghosts. Ever since a young age, he&amp;#039;s \nbeen able to see spirits from the afterlife. Ichigo&amp;#039;s life \ncompletely changes one day when he and his two sisters are \nattacked by an evil, hungry and tormented spirit known as a \nHollow. Right in the nick of time, Ichigo and his siblings \nare aided by a Shinigami (Death God) named Kuchiki Rukia, \nwhose responsibility it is to send good spirits (Pluses) to \nthe afterlife known as Soul Society, and to purify Hollows \nand send them up to Soul Society. But during the fight against \nthe Hollow, Rukia is injured and must transfer her powers to \nIchigo. With this newly acquired power, so begins Kurosaki \nIchigo&amp;#039;s training and duty as a Shinigami to maintain the \nbalance between the world of the living and the world of \nthe dead...          \n_______________________________________________________________\n\n___________________\nINFORMATION\n___________________\n_______________________________________________________________\nIm doing this for the handfull of people who can&amp;#039;t for whatever\nReason it may be play dattebayo&amp;#039;s encoding of bleach because \nof the H.264/X.264 Codec.Enjoy the Xvid version.\nHueco Mundo arc started again!!!  :)  I&amp;#039;ll be starting\nTo release Xvid versions of the entire Arc.\n_______________________________________________________________\n\n___________________\nNotes              \n___________________\n_______________________________________________________________\nBe aware People are starting to use my tag to create fake files\nMake sure its a real genuine release from me, I have never and \nwill never do Cams,Telesyncs,Telecine. I have never and will   \nnever do Rar files. Try to check 1337x.org to see if the file  \nexist. Fuck the fakers and enjoy my release.                   \n_______________________________________________________________\n___________________\n  Post Information \n___________________\n_________________________________\nPosted by............: Noir     \nPosted on............: 11/26/2008\n_________________________________","torrent":{"xt":"urn:btih:29802d05d98e2c14709102e341d8a603f911aad6","amp;dn":"Bleach+%28Ep+196%29+%5BEng+Subs%5D+%5BXvid%5D+%7B1337x%7D-Noir","amp;tr":["udp%3A%2F%2Ftracker.openbittorrent.com%3A80","udp%3A%2F%2Fopen.demonii.com%3A1337","udp%3A%2F%2Ftracker.coppersurfer.tk%3A6969","udp%3A%2F%2Fexodus.desync.com%3A6969"],"infoHash":"29802d05d98e2c14709102e341d8a603f911aad6","infoHashBuffer":{"type":"Buffer","data":[41,128,45,5,217,142,44,20,112,145,2,227,65,216,166,3,249,17,170,214]},"announce":[],"urlList":[]}}